{"title":"Sanctum (2011) 3D sbs 720p","uid":6893989,"size":3783960656,"categoryP":"video","categoryS":"3d","magnet":"?xt=urn:btih:03e38296d38f6ecebe13bb29bcb5481369365715&amp;dn=Sanctum+%282011%29+3D+sbs+720p&amp;tr=udp%3A%2F%2Ftracker.openbittorrent.com%3A80&amp;tr=udp%3A%2F%2Fopen.demonii.com%3A1337&amp;tr=udp%3A%2F%2Ftracker.coppersurfer.tk%3A6969&amp;tr=udp%3A%2F%2Fexodus.desync.com%3A6969","seeders":1,"leechers":2,"uploader":"stu181","files":1,"time":1324083143,"description":"Storyline\n\nThe 3-D action-thriller Sanctum follows a team of underwater cave divers on a treacherous expedition to the largest, most beautiful and least accessible cave system on Earth. When a tropical storm forces them deep into the caverns, they must fight raging water, deadly terrain and creeping panic as they search for an unknown escape route to the sea. Master diver Frank McGuire has explored the South Pacific's Esa-ala Caves for months. But when his exit is cut off in a flash flood, Frank's team-including 17-year-old son Josh and financier Carl Hurley are forced to radically alter plans. With dwindling supplies, the crew must navigate an underwater labyrinth to make it out. Soon, they are confronted with the unavoidable question: Can they survive, or will they be trapped forever?\n\n\nFormat                           : Matroska\nFormat version                   : Version 1\nFile size                        : 3.52 GiB\nDuration                         : 1h 48mn\nOverall bit rate                 : 4 638 Kbps\nEncoded date                     : UTC 2011-12-16 07:38:03\nWriting application              : AVSMatroskaFile\nWriting library                  : libebml v0.7.7 + libmatroska v0.8.1\n\nVideo\nID                               : 1\nFormat                           : AVC\nFormat/Info                      : Advanced Video Codec\nFormat profile                   : &lt;a class=&quot;__cf_email__&quot; href=&quot;/cdn-cgi/l/email-protection&quot; data-cfemail=&quot;d39eb2babd939fe6fde2&quot;&gt;[email&amp;#160;protected]&lt;/a&gt;&lt;script cf-hash='f9e31' type=&quot;text/javascript&quot;&gt;\n/* &lt;![CDATA[ */!function(){try{var t=&quot;currentScript&quot;in document?document.currentScript:function(){for(var t=document.getElementsByTagName(&quot;script&quot;),e=t.length;e--;)if(t[e].getAttribute(&quot;cf-hash&quot;))return t[e]}();if(t&amp;&amp;t.previousSibling){var e,r,n,i,c=t.previousSibling,a=c.getAttribute(&quot;data-cfemail&quot;);if(a){for(e=&quot;&quot;,r=parseInt(a.substr(0,2),16),n=2;a.length-n;n+=2)i=parseInt(a.substr(n,2),16)^r,e+=String.fromCharCode(i);e=document.createTextNode(e),c.parentNode.replaceChild(e,c)}}}catch(u){}}();/* ]]&gt; */&lt;/script&gt;\nFormat settings, CABAC           : Yes\nFormat settings, ReFrames        : 2 frames\nCodec ID                         : V_MPEG4/ISO/AVC\nDuration                         : 1h 48mn\nBit rate                         : 4 289 Kbps\nWidth                            : 1 280 pixels\nHeight                           : 720 pixels\nDisplay aspect ratio             : 16:9\nFrame rate                       : 23.976 fps\nColor space                      : YUV\nChroma subsampling               : 4:2:0\nBit depth                        : 8 bits\nScan type                        : Progressive\nBits/(Pixel*Frame)               : 0.194\nStream size                      : 3.26 GiB (92%)\n\nAudio\nID                               : 2\nFormat                           : MPEG Audio\nFormat version                   : Version 1\nFormat profile                   : Layer 3\nCodec ID                         : A_MPEG/L3\nCodec ID/Hint                    : MP3\nDuration                         : 1h 48mn\nBit rate mode                    : Constant\nBit rate                         : 256 Kbps\nChannel(s)                       : 2 channels\nSampling rate                    : 44.1 KHz\nCompression mode                 : Lossy\nStream size                      : 199 MiB (6%)\nWriting library                  : LAMELAME_MAJOR_VERSI\n\n","torrent":{"xt":"urn:btih:03e38296d38f6ecebe13bb29bcb5481369365715","amp;dn":"Sanctum+%282011%29+3D+sbs+720p","amp;tr":["udp%3A%2F%2Ftracker.openbittorrent.com%3A80","udp%3A%2F%2Fopen.demonii.com%3A1337","udp%3A%2F%2Ftracker.coppersurfer.tk%3A6969","udp%3A%2F%2Fexodus.desync.com%3A6969"],"infoHash":"03e38296d38f6ecebe13bb29bcb5481369365715","infoHashBuffer":{"type":"Buffer","data":[3,227,130,150,211,143,110,206,190,19,187,41,188,181,72,19,105,54,87,21]},"announce":[],"urlList":[]}}